<svg width="16" height="16" viewBox="0 0 16 16" fill="none" xmlns="http://www.w3.org/2000/svg">
<path fill-rule="evenodd" clip-rule="evenodd" d="M11.46 10.3185L15.7638 14.6222C15.915 14.7736 16 14.9789 15.9999 15.1929C15.9998 15.4069 15.9148 15.6121 15.7634 15.7634C15.612 15.9146 15.4067 15.9996 15.1927 15.9995C14.9787 15.9994 14.7735 15.9144 14.6222 15.763L10.3185 11.4592C9.03189 12.4557 7.41403 12.9246 5.79399 12.7706C4.17396 12.6166 2.67344 11.8512 1.5977 10.6301C0.521954 9.40906 -0.0482095 7.82404 0.00319689 6.19751C0.0546033 4.57098 0.723718 3.02513 1.87442 1.87442C3.02513 0.723718 4.57098 0.0546033 6.19751 0.00319689C7.82404 -0.0482095 9.40906 0.521954 10.6301 1.5977C11.8512 2.67344 12.6166 4.17396 12.7706 5.79399C12.9246 7.41403 12.4557 9.03189 11.4592 10.3185H11.46ZM6.40026 11.1992C7.67323 11.1992 8.89407 10.6935 9.7942 9.7934C10.6943 8.89327 11.2 7.67243 11.2 6.39946C11.2 5.12649 10.6943 3.90565 9.7942 3.00553C8.89407 2.1054 7.67323 1.59971 6.40026 1.59971C5.12729 1.59971 3.90645 2.1054 3.00633 3.00553C2.1062 3.90565 1.60051 5.12649 1.60051 6.39946C1.60051 7.67243 2.1062 8.89327 3.00633 9.7934C3.90645 10.6935 5.12729 11.1992 6.40026 11.1992Z" fill="#222222"/>
</svg>
