<svg width="128" height="28" viewBox="0 0 128 28" fill="none" xmlns="http://www.w3.org/2000/svg">
<path fill-rule="evenodd" clip-rule="evenodd" d="M12.7667 3.3001V0.600098H0.533325V3.33343H4.73333V15.1668H8.53333V3.3001H12.7667ZM59.8333 15.1334C59.7333 14.1668 59.6667 13.4334 59.6667 12.9001V8.0001C59.6667 5.96676 58.1667 4.7001 56.2 4.7001C54.7667 4.73343 53.5333 5.36676 52.8333 6.5001C52.4 5.36676 51.1667 4.76676 50 4.76676C48.6 4.76676 47.4 5.23343 46.7333 6.5001L46.6667 5.0001H43.2V15.1334H46.8V9.0001C46.8 8.66676 46.6667 6.93343 48.3 6.93343C49.4 6.93343 49.6667 7.93343 49.6667 8.9001V15.1001H53.2333V9.0001C53.2333 8.66676 53.1 6.93343 54.7333 6.93343C55.8333 6.93343 56.1 7.93343 56.1 8.9001V15.1001L59.8333 15.1334ZM42.4 7.96676V4.86676C40.8333 4.83343 39.6667 5.36676 39.2 6.9001L39.1333 4.96676H35.5333C35.6 5.8001 35.6 6.9001 35.6 7.56676V15.1001H39.2V10.6668C39.2 9.0001 39.7 7.96676 41.6667 7.93343C41.9 7.93343 42.1333 7.93343 42.4 7.96676ZM66.0333 4.7001C62.7333 4.7001 60.5667 6.53343 60.5667 10.0334C60.5667 13.6334 62.7333 15.4001 66.0333 15.4001C69.3333 15.4001 71.5 13.6001 71.5 10.0334C71.4667 6.53343 69.3 4.7001 66.0333 4.7001ZM66.0333 6.83343C67.5333 6.83343 67.8333 8.4001 67.8333 9.96676C67.8333 11.8334 67.5 13.2668 66.0333 13.2668C64.5667 13.2668 64.2333 11.8001 64.2333 9.96676C64.2333 8.36676 64.5 6.8001 66.0333 6.83343ZM23.7667 15.1334C23.6667 14.1668 23.6333 13.4668 23.6333 12.9001V8.0001C23.6333 5.96676 22.1333 4.7001 20.1333 4.7001C19.5333 4.7001 18.9333 4.8001 18.4333 5.03343C17.9667 5.26676 17.5333 5.56676 17.1333 6.06676V0.600098H13.6V15.1334H17.2V9.0001C17.2 8.66676 17.0667 6.93343 18.7 6.93343C19.8333 6.93343 20.0667 7.93343 20.0667 8.9001V15.1001L23.7667 15.1334ZM34.7333 10.7334C34.7667 7.1001 33.6667 4.7001 29.6 4.7001C26.4 4.7001 24.4667 6.66676 24.4667 9.76676C24.4667 13.5668 25.8333 15.4001 29.7667 15.4001C31 15.4001 32.1 15.1334 32.9 14.5668C33.8 13.9668 34.5 13.0668 34.6 11.8001H31.2667C31.1667 12.7334 30.6333 13.3668 29.5667 13.3668C28.2 13.3668 27.9 12.0668 27.9333 10.8001H34.7333V10.7334ZM31.3 8.8001H27.9667C28.0333 7.73343 28.3 6.63343 29.6333 6.56676C30.2333 6.53343 30.6333 6.83343 30.9 7.26676C31.2 7.7001 31.3 8.26676 31.3 8.8001Z" fill="#EE3134"/>
<path fill-rule="evenodd" clip-rule="evenodd" d="M127.533 7.76665V4.66665C125.967 4.63332 124.8 5.16665 124.333 6.69998L124.267 4.93332H120.667C120.733 5.76665 120.733 6.86665 120.733 7.53332V15.0667H124.333V10.6667C124.333 8.99998 124.833 7.79998 126.8 7.73332C127.033 7.76665 127.267 7.76665 127.533 7.76665ZM108.9 15.1333C108.8 14.1667 108.767 13.4667 108.767 12.9V7.99998C108.767 5.96665 107.267 4.69998 105.267 4.69998C104.667 4.69998 104.133 4.79998 103.6 5.03332C103.133 5.26665 102.667 5.56665 102.267 6.06665V0.599984H98.6666V15.1333H102.267V8.99998C102.267 8.66665 102.133 6.93332 103.767 6.93332C104.9 6.93332 105.133 7.93332 105.133 8.89998V15.1L108.9 15.1333ZM97.8 12.1C97.8 10.5333 96.9666 9.76665 95.8333 9.33332C93.6666 8.56665 92.0666 8.53332 92.0666 7.73332C92.0666 7.13332 92.4 6.79998 93 6.79998C93.4666 6.79998 93.7666 6.93332 93.9666 7.13332C94.1333 7.33332 94.2333 7.66665 94.2333 8.09998H97.6333C97.5666 5.43332 95.4666 4.73332 93.1666 4.73332C91.2 4.73332 88.6666 5.43332 88.6666 7.86665C88.6666 11.4 94.4 10.5 94.4 12.3666C94.4 13.0333 93.8666 13.3333 93.1666 13.3333C92.7666 13.3333 92.4333 13.1333 92.2333 12.8333C92.0333 12.5667 91.9666 12.2 92 11.8333H88.5666C88.5 14.8667 90.7333 15.4 93.2333 15.4C95.5666 15.4 97.8 14.5667 97.8 12.1ZM119.833 10.7333C119.867 7.09998 118.767 4.69998 114.7 4.69998C111.5 4.69998 109.567 6.66665 109.567 9.76665C109.567 13.5667 110.9 15.4 114.867 15.4C116.1 15.4 117.2 15.1333 118 14.5667C118.9 13.9667 119.6 13.0667 119.7 11.8H116.333C116.233 12.7333 115.7 13.3666 114.633 13.3666C113.267 13.3666 112.967 12.0667 113 10.8H119.867V10.7333H119.833ZM116.467 8.79998H113.133C113.2 7.73332 113.467 6.63332 114.8 6.56665C115.4 6.53332 115.8 6.83332 116.067 7.26665C116.333 7.69998 116.467 8.26665 116.467 8.79998ZM87.7 15.1333V4.96665H84.1V15.1L87.7 15.1333ZM83 3.23332L83.8333 0.56665H74.2V15.1H77.9999V9.39998H81.0666L81.8999 6.73332H77.9999V3.23332H83ZM87.7 3.23332L88.5666 0.56665H85.0333L84.1666 3.23332H87.7Z" fill="#EE3134"/>
<path fill-rule="evenodd" clip-rule="evenodd" d="M33.4 27.6001V19.4001H34.6999V27.6334H33.4V27.6001ZM121.867 27.7334C119.133 27.7334 117.067 26.2001 117.067 23.5334C117.067 20.8334 119.367 19.1667 121.967 19.1667C122.9 19.1667 123.9 19.4667 124.567 19.9001L123.9 20.7001C123.333 20.3667 122.7 20.1667 122 20.1667C121 20.1667 120.033 20.4667 119.4 21.1667C118.867 21.7667 118.567 22.5001 118.567 23.5667C118.567 24.7334 118.933 25.3667 119.533 25.9667C120.167 26.6001 121.133 26.7667 122.067 26.7667C122.833 26.7667 123.567 26.5001 124.167 26.1667L124.8 26.9334C124.1 27.4001 122.967 27.7334 121.867 27.7334ZM108.067 27.6001V19.4001H109.367V27.6334H108.067V27.6001ZM78.3333 20.3667H75.2666V27.6334H74V20.3667H70.9333V19.3667H78.5L78.3333 20.3667ZM9.89994 27.3001C9.26661 27.6001 8.49994 27.7668 7.56661 27.7668C6.39994 27.7668 5.19994 27.5001 4.23328 27.0334L4.76661 26.1001C5.73328 26.5668 6.63328 26.8001 7.63328 26.8001C8.29994 26.8001 8.73328 26.7001 9.13328 26.4667C9.59994 26.2001 9.86661 25.8667 9.86661 25.4001C9.86661 24.7001 9.33328 24.2667 8.06661 24.0001L6.73328 23.7001C5.39994 23.4001 4.56661 22.5667 4.56661 21.5667C4.56661 20.1667 5.93328 19.1667 7.93328 19.1667C9.09994 19.1667 10.2999 19.4667 11.0999 19.9667L10.4999 20.8334C9.69994 20.4001 8.86661 20.1667 7.99994 20.1667C6.83328 20.1667 5.99994 20.6334 5.99994 21.4001C5.99994 22.0001 6.49994 22.3667 7.63328 22.6334L8.86661 22.9334C9.56661 23.1001 10.2999 23.4001 10.6999 23.7667C11.0999 24.1334 11.3333 24.7001 11.3333 25.2334C11.3666 26.0667 10.8333 26.8667 9.89994 27.3001ZM62.6666 27.6001L59.4 23.2001C58.8 22.3667 57.7333 20.7667 57.7333 20.7667C57.7333 20.7667 57.8333 22.1667 57.8666 23.3667L57.9 27.6001H56.6V19.4001H58.1666L61.4666 23.9001C62.1 24.7667 63 26.1667 63 26.1667C63 26.1667 62.8 24.6334 62.8 23.5667L62.7666 19.4334H64.0666V27.6667L62.6666 27.6001ZM85.2333 27.6001V19.4001H86.5333V27.6334H85.2333V27.6001ZM100.867 20.3667H96.3333V22.8001H100.167V23.7667H96.3333V27.6334H95.0333V19.4001H101.033L100.867 20.3667ZM43.2333 27.6001V19.4001H49.3333L49.1666 20.4001H44.5666V22.8667H48.4666V23.8667H44.5666V26.6667H49.4666V27.6667H43.2333V27.6001ZM23.2333 27.7334C20.4999 27.7334 18.4333 26.2001 18.4333 23.5334C18.4333 20.8334 20.7333 19.1667 23.3333 19.1667C24.2666 19.1667 25.2666 19.4667 25.9333 19.9001L25.2666 20.7001C24.6999 20.3667 24.0666 20.1667 23.3666 20.1667C22.3666 20.1667 21.3999 20.4667 20.7333 21.1667C20.1999 21.7667 19.8999 22.5001 19.8999 23.5667C19.8999 24.7334 20.2666 25.3667 20.8666 25.9667C21.4999 26.6001 22.4666 26.7667 23.3999 26.7667C24.1666 26.7667 24.8999 26.5001 25.4999 26.1667L26.1333 26.9334C25.4666 27.4001 24.3333 27.7334 23.2333 27.7334Z" fill="black"/>
</svg>
